<svg id="svg" version="1.1" xmlns="http://www.w3.org/2000/svg" xmlns:xlink="http://www.w3.org/1999/xlink" width="400" height="231.80592991913747" viewBox="0, 0, 400,231.80592991913747"><g id="svgg"><path id="path0" d="M155.615 8.759 C 155.604 8.922,155.328 9.156,155.003 9.280 C 154.663 9.409,154.308 9.802,154.169 10.202 C 154.035 10.585,153.846 10.899,153.748 10.899 C 153.650 10.899,153.394 11.360,153.179 11.924 C 152.963 12.488,152.636 13.074,152.452 13.228 C 152.267 13.381,152.116 13.787,152.116 14.130 C 152.116 14.473,151.919 14.964,151.679 15.222 C 151.439 15.480,151.169 16.123,151.080 16.650 C 150.991 17.178,150.732 17.847,150.504 18.138 C 150.276 18.429,150.011 19.032,149.915 19.478 C 149.819 19.925,149.545 20.677,149.305 21.150 C 149.066 21.623,148.869 22.302,148.869 22.657 C 148.868 23.013,148.669 23.631,148.425 24.030 C 148.182 24.430,147.909 25.369,147.819 26.117 C 147.730 26.866,147.468 27.948,147.237 28.522 C 147.006 29.096,146.747 30.086,146.661 30.722 C 146.576 31.358,146.369 32.142,146.202 32.465 C 146.035 32.788,145.785 33.668,145.645 34.420 C 145.506 35.173,145.236 35.961,145.045 36.173 C 144.853 36.384,144.608 37.030,144.500 37.608 C 144.392 38.186,144.131 38.906,143.920 39.207 C 143.709 39.509,143.536 39.901,143.536 40.078 C 143.536 40.532,140.169 47.192,139.582 47.899 C 138.831 48.804,135.884 54.746,135.884 55.355 C 135.884 55.656,135.649 56.342,135.362 56.879 C 134.491 58.510,134.438 66.926,135.288 68.782 C 135.616 69.499,135.884 70.261,135.884 70.477 C 135.884 71.757,138.087 75.053,139.493 75.877 C 139.868 76.097,140.330 76.372,140.522 76.489 C 141.282 76.953,143.939 77.686,144.854 77.684 C 145.388 77.682,146.580 77.840,147.504 78.034 C 150.205 78.603,152.873 78.676,155.826 78.262 C 157.293 78.057,159.067 77.837,159.768 77.773 C 162.628 77.512,166.052 75.218,167.884 72.336 C 168.326 71.641,168.767 71.038,168.865 70.995 C 168.963 70.953,169.043 70.811,169.043 70.681 C 169.043 70.551,169.315 69.907,169.647 69.251 C 171.192 66.195,171.311 59.901,169.890 56.348 C 169.712 55.901,169.442 55.016,169.291 54.380 C 169.140 53.744,168.879 53.066,168.711 52.873 C 168.544 52.680,168.337 52.134,168.252 51.660 C 168.167 51.185,167.961 50.661,167.794 50.494 C 167.627 50.327,167.357 49.776,167.194 49.269 C 167.031 48.762,166.775 48.191,166.624 48.000 C 166.473 47.809,165.994 46.922,165.558 46.029 C 165.123 45.136,164.598 44.145,164.391 43.826 C 164.184 43.507,163.592 42.607,163.076 41.826 C 162.559 41.045,162.059 40.158,161.964 39.855 C 161.869 39.552,161.545 39.009,161.244 38.649 C 160.942 38.288,160.696 37.863,160.696 37.703 C 160.696 37.280,158.403 32.896,157.888 32.333 C 157.647 32.070,157.449 31.668,157.449 31.440 C 157.449 31.211,157.198 30.540,156.892 29.947 C 155.183 26.645,154.683 23.428,155.107 18.480 C 155.248 16.847,155.362 14.880,155.362 14.108 C 155.362 13.336,155.522 12.089,155.717 11.337 C 155.970 10.360,156.009 9.755,155.853 9.217 C 155.734 8.803,155.627 8.597,155.615 8.759 M136.104 83.119 C 135.685 83.538,135.818 186.847,136.240 188.195 C 136.436 188.821,136.743 190.136,136.922 191.116 C 137.102 192.097,137.411 193.213,137.610 193.597 C 137.808 193.982,137.972 194.588,137.972 194.945 C 137.973 195.302,138.230 196.012,138.545 196.522 C 138.859 197.032,139.119 197.613,139.123 197.814 C 139.135 198.396,141.697 203.303,143.239 205.695 C 145.461 209.143,153.333 216.812,154.650 216.812 C 154.755 216.812,154.974 216.971,155.136 217.166 C 155.531 217.642,157.288 218.816,157.891 219.008 C 158.158 219.092,158.377 219.257,158.377 219.373 C 158.377 219.488,158.768 219.775,159.246 220.009 C 159.725 220.243,160.325 220.549,160.580 220.689 C 161.471 221.180,163.599 222.118,164.174 222.274 C 164.493 222.361,164.910 222.563,165.101 222.723 C 165.293 222.883,165.867 223.145,166.377 223.305 C 166.887 223.466,167.429 223.695,167.581 223.816 C 167.734 223.937,168.535 224.177,169.363 224.350 C 170.191 224.523,171.110 224.816,171.405 225.000 C 171.700 225.185,172.439 225.399,173.047 225.476 C 173.655 225.553,174.438 225.762,174.787 225.942 C 175.135 226.121,176.539 226.388,177.906 226.534 C 179.274 226.681,180.787 226.976,181.269 227.189 C 182.596 227.778,200.796 227.792,201.868 227.205 C 202.258 226.991,203.424 226.701,204.458 226.559 C 205.493 226.418,206.654 226.145,207.038 225.953 C 207.422 225.762,208.291 225.545,208.970 225.471 C 209.648 225.397,210.428 225.196,210.703 225.025 C 210.978 224.853,211.709 224.588,212.326 224.436 C 212.944 224.283,213.689 223.973,213.982 223.747 C 214.275 223.521,214.840 223.265,215.238 223.178 C 215.636 223.090,216.283 222.822,216.676 222.583 C 217.070 222.343,217.585 222.146,217.822 222.146 C 218.058 222.145,218.562 221.884,218.941 221.565 C 219.320 221.246,219.814 220.986,220.040 220.986 C 220.265 220.986,220.639 220.777,220.870 220.522 C 221.100 220.267,221.413 220.058,221.565 220.058 C 221.717 220.058,222.028 219.852,222.256 219.600 C 222.483 219.348,222.891 219.074,223.161 218.991 C 223.431 218.908,224.191 218.384,224.849 217.826 C 225.507 217.268,226.105 216.812,226.179 216.812 C 227.199 216.812,234.444 209.512,236.765 206.145 C 237.073 205.699,237.497 205.125,237.708 204.870 C 237.919 204.614,238.168 204.145,238.261 203.826 C 238.354 203.507,238.613 203.038,238.837 202.783 C 239.061 202.528,239.388 202.037,239.564 201.693 C 239.740 201.349,240.275 200.324,240.754 199.414 C 241.232 198.504,241.623 197.654,241.623 197.525 C 241.623 197.395,241.817 197.012,242.055 196.673 C 242.292 196.335,242.560 195.653,242.651 195.157 C 242.741 194.661,243.017 193.880,243.263 193.421 C 243.509 192.962,243.710 192.344,243.710 192.046 C 243.710 191.749,243.910 191.017,244.155 190.420 C 244.400 189.822,244.664 188.790,244.742 188.125 C 244.820 187.460,245.101 186.260,245.367 185.458 C 246.102 183.245,246.111 167.803,245.380 165.743 C 245.120 165.012,244.833 163.707,244.743 162.844 C 244.653 161.981,244.383 160.888,244.144 160.415 C 243.906 159.942,243.707 159.264,243.703 158.908 C 243.699 158.552,243.439 157.739,243.125 157.101 C 242.812 156.464,242.554 155.754,242.553 155.524 C 242.551 155.136,242.242 154.432,241.314 152.696 C 240.971 152.054,240.762 151.618,240.202 150.377 C 240.087 150.122,239.683 149.443,239.304 148.870 C 238.926 148.296,238.544 147.670,238.455 147.478 C 237.421 145.250,231.969 139.071,228.533 136.232 C 227.916 135.722,227.035 134.961,226.577 134.541 C 226.119 134.121,225.508 133.719,225.220 133.646 C 224.931 133.574,224.696 133.441,224.696 133.351 C 224.696 133.261,224.330 133.013,223.884 132.800 C 223.438 132.587,223.072 132.320,223.072 132.206 C 223.072 132.092,222.733 131.864,222.319 131.700 C 221.904 131.536,221.404 131.266,221.207 131.100 C 220.702 130.673,215.829 128.235,215.477 128.233 C 215.318 128.233,214.797 128.023,214.321 127.768 C 213.846 127.513,213.282 127.304,213.070 127.304 C 212.858 127.304,212.126 127.044,211.443 126.727 C 210.761 126.409,209.860 126.148,209.440 126.147 C 209.020 126.146,208.268 125.936,207.768 125.681 C 207.268 125.426,206.449 125.217,205.948 125.217 C 205.446 125.217,204.009 124.950,202.754 124.624 C 199.718 123.836,185.119 123.816,183.684 124.599 C 183.255 124.833,182.316 125.077,181.597 125.141 C 180.834 125.208,179.685 125.545,178.839 125.948 L 177.387 126.640 177.395 141.158 C 177.400 151.353,177.478 155.767,177.657 155.983 C 178.019 156.419,178.954 156.363,179.674 155.861 C 180.013 155.626,180.812 155.322,181.449 155.186 C 182.087 155.050,183.072 154.767,183.637 154.557 C 185.112 154.010,196.466 154.118,197.344 154.687 C 197.657 154.890,198.270 155.126,198.707 155.211 C 199.144 155.297,200.050 155.627,200.722 155.944 C 201.393 156.262,202.037 156.522,202.153 156.522 C 202.268 156.522,202.543 156.721,202.764 156.965 C 202.984 157.208,203.443 157.477,203.783 157.563 C 204.505 157.744,204.539 157.772,206.921 160.147 C 209.390 162.607,209.910 163.421,211.949 168.000 C 213.338 171.122,214.028 179.308,212.975 180.182 C 212.806 180.323,212.596 181.031,212.510 181.755 C 212.423 182.480,212.156 183.398,211.915 183.795 C 211.675 184.193,211.478 184.652,211.478 184.815 C 211.478 185.279,209.862 188.522,209.630 188.522 C 209.516 188.522,209.356 188.730,209.276 188.985 C 209.085 189.586,205.014 193.684,204.146 194.149 C 201.286 195.680,199.753 196.406,199.377 196.406 C 199.136 196.406,198.551 196.599,198.078 196.836 C 195.834 197.958,185.635 197.952,183.768 196.827 C 183.386 196.596,182.848 196.407,182.574 196.407 C 181.019 196.404,173.681 191.134,173.681 190.019 C 173.681 189.884,173.212 189.129,172.638 188.340 C 172.064 187.551,171.594 186.774,171.593 186.612 C 171.593 186.451,171.402 186.006,171.170 185.623 C 170.938 185.241,170.618 184.406,170.460 183.768 C 170.302 183.130,170.016 182.367,169.825 182.072 C 169.633 181.776,169.370 180.524,169.240 179.289 C 169.111 178.054,168.857 176.596,168.676 176.050 C 168.397 175.206,168.348 168.127,168.348 129.165 C 168.348 92.704,168.288 83.236,168.058 83.090 C 167.634 82.822,136.373 82.850,136.104 83.119 M90.203 121.955 C 88.864 122.049,87.349 122.287,86.836 122.483 C 86.323 122.680,85.334 122.919,84.639 123.014 C 83.943 123.110,83.162 123.324,82.904 123.489 C 82.646 123.655,81.844 123.898,81.123 124.028 C 80.401 124.159,79.411 124.480,78.923 124.742 C 78.435 125.003,77.898 125.217,77.731 125.217 C 77.563 125.217,77.039 125.415,76.568 125.656 C 76.096 125.897,74.980 126.443,74.087 126.868 C 73.194 127.294,72.429 127.721,72.387 127.818 C 72.345 127.915,71.876 128.204,71.344 128.459 C 70.233 128.992,68.808 129.836,68.638 130.061 C 68.574 130.145,68.211 130.412,67.832 130.653 C 67.453 130.895,67.035 131.180,66.905 131.287 C 66.774 131.393,65.623 132.299,64.348 133.300 C 60.827 136.062,53.797 143.748,53.797 144.836 C 53.797 144.930,53.632 145.189,53.430 145.413 C 53.010 145.877,52.317 147.034,51.835 148.076 C 51.654 148.469,51.343 148.925,51.144 149.090 C 50.945 149.255,50.783 149.566,50.783 149.780 C 50.783 149.995,50.522 150.524,50.203 150.957 C 49.884 151.389,49.623 151.917,49.623 152.130 C 49.623 152.343,49.414 152.782,49.159 153.107 C 48.904 153.431,48.696 153.942,48.696 154.241 C 48.696 154.541,48.435 155.276,48.116 155.875 C 47.797 156.474,47.534 157.204,47.531 157.497 C 47.528 157.789,47.320 158.483,47.068 159.038 C 46.816 159.594,46.501 160.730,46.368 161.565 C 46.234 162.399,46.004 163.301,45.856 163.570 C 45.082 164.973,44.582 174.672,45.076 178.715 C 45.281 180.400,45.449 182.187,45.449 182.687 C 45.449 183.187,45.614 183.991,45.816 184.474 C 46.018 184.956,46.283 185.987,46.404 186.763 C 46.526 187.539,46.831 188.616,47.081 189.157 C 47.331 189.698,47.536 190.407,47.536 190.733 C 47.536 191.059,47.797 191.816,48.116 192.415 C 48.435 193.014,48.698 193.713,48.701 193.969 C 48.704 194.225,48.910 194.696,49.159 195.014 C 49.409 195.333,49.615 195.757,49.618 195.955 C 49.621 196.153,49.884 196.669,50.203 197.101 C 50.522 197.534,50.783 198.027,50.783 198.197 C 50.783 198.368,51.227 199.209,51.770 200.065 C 52.314 200.922,52.890 201.832,53.052 202.087 C 53.214 202.342,53.526 202.849,53.746 203.214 C 54.577 204.595,57.387 208.109,58.289 208.896 C 58.528 209.105,58.841 209.417,58.985 209.591 C 59.907 210.704,61.783 212.638,61.940 212.638 C 62.044 212.638,62.576 213.089,63.122 213.641 C 65.305 215.846,69.053 218.549,72.000 220.045 C 72.510 220.304,73.084 220.609,73.275 220.723 C 73.467 220.836,73.988 221.098,74.435 221.304 C 74.881 221.510,75.403 221.774,75.594 221.890 C 76.452 222.413,79.361 223.536,79.858 223.536 C 80.160 223.536,80.527 223.681,80.675 223.859 C 80.822 224.036,81.435 224.254,82.036 224.342 C 82.638 224.430,83.587 224.702,84.145 224.947 C 84.704 225.191,85.606 225.391,86.150 225.391 C 86.694 225.391,87.855 225.619,88.729 225.898 C 90.936 226.601,101.426 226.689,103.272 226.020 C 103.891 225.795,105.255 225.525,106.302 225.419 C 107.349 225.312,108.459 225.062,108.769 224.863 C 109.079 224.663,109.855 224.424,110.493 224.332 C 111.130 224.239,111.861 224.031,112.116 223.869 C 112.371 223.707,113.046 223.451,113.615 223.301 C 114.184 223.151,114.903 222.829,115.212 222.586 C 115.520 222.344,116.005 222.145,116.290 222.145 C 116.574 222.145,117.074 221.935,117.399 221.679 C 117.725 221.423,118.311 221.149,118.701 221.071 C 119.091 220.993,119.534 220.780,119.686 220.596 C 119.839 220.413,120.284 220.109,120.677 219.920 C 121.070 219.732,121.809 219.325,122.319 219.015 C 122.829 218.706,123.559 218.280,123.942 218.069 C 124.325 217.858,124.846 217.499,125.101 217.273 C 125.357 217.046,125.983 216.582,126.493 216.243 C 129.853 214.005,132.498 211.129,131.902 210.362 C 131.438 209.763,110.634 188.986,110.500 188.986 C 110.320 188.986,109.454 189.724,108.800 190.435 C 108.477 190.786,108.090 191.072,107.940 191.072 C 107.789 191.072,107.477 191.281,107.246 191.536 C 107.016 191.791,106.707 192.000,106.560 192.000 C 106.413 192.000,105.939 192.261,105.507 192.580 C 105.075 192.899,104.575 193.159,104.397 193.159 C 104.218 193.159,103.795 193.353,103.456 193.589 C 103.118 193.826,102.371 194.081,101.797 194.157 C 101.223 194.233,100.420 194.462,100.013 194.665 C 98.850 195.247,95.706 195.369,93.913 194.903 C 93.084 194.688,91.774 194.390,91.002 194.241 C 90.230 194.093,89.343 193.808,89.031 193.609 C 88.719 193.409,88.125 193.110,87.710 192.943 C 87.296 192.776,86.957 192.567,86.957 192.479 C 86.957 192.390,86.617 192.141,86.203 191.924 C 84.718 191.149,83.892 190.508,82.598 189.129 C 82.253 188.761,81.684 188.158,81.333 187.788 C 80.983 187.417,80.696 186.996,80.696 186.851 C 80.696 186.706,80.550 186.423,80.373 186.221 C 80.195 186.020,79.609 185.020,79.071 184.000 C 78.533 182.980,78.015 182.041,77.919 181.913 C 77.823 181.786,77.673 181.212,77.585 180.638 C 77.498 180.064,77.265 179.349,77.069 179.049 C 76.344 177.942,76.345 171.841,77.071 169.553 C 77.406 168.494,77.682 167.399,77.682 167.118 C 77.683 166.838,77.891 166.267,78.146 165.849 C 78.400 165.432,78.609 164.950,78.609 164.779 C 78.609 164.608,78.811 164.211,79.058 163.897 C 79.305 163.583,79.578 163.045,79.664 162.701 C 79.751 162.357,80.010 161.944,80.241 161.782 C 80.473 161.620,80.798 161.189,80.964 160.824 C 81.399 159.870,85.328 156.290,85.940 156.290 C 86.033 156.290,86.277 156.137,86.483 155.951 C 87.153 155.345,89.485 154.203,90.053 154.203 C 90.358 154.203,91.080 153.994,91.658 153.738 C 93.673 152.847,100.067 152.919,101.393 153.848 C 101.672 154.043,102.115 154.203,102.376 154.203 C 103.218 154.203,107.335 156.458,108.388 157.496 C 109.932 159.018,110.462 159.417,110.829 159.336 C 111.111 159.275,131.472 139.026,132.344 137.941 C 132.577 137.651,132.529 137.450,132.082 136.844 C 131.383 135.897,128.602 133.474,126.722 132.174 C 126.261 131.855,125.289 131.125,124.563 130.551 C 123.031 129.340,122.652 129.089,121.391 128.454 C 120.881 128.197,119.692 127.572,118.748 127.066 C 117.804 126.559,116.853 126.145,116.634 126.145 C 116.415 126.145,115.971 125.936,115.647 125.681 C 115.323 125.426,114.954 125.217,114.827 125.217 C 114.700 125.217,114.039 124.958,113.356 124.640 C 112.674 124.322,111.851 124.061,111.527 124.060 C 111.204 124.059,110.542 123.856,110.056 123.608 C 109.571 123.361,108.584 123.085,107.862 122.995 C 107.141 122.906,106.003 122.644,105.333 122.414 C 103.929 121.932,94.577 121.648,90.203 121.955 M298.435 124.278 C 297.478 124.378,296.017 124.629,295.188 124.835 C 294.359 125.042,293.130 125.212,292.456 125.214 C 291.783 125.216,290.844 125.383,290.369 125.587 C 289.895 125.790,288.804 126.047,287.944 126.160 C 287.084 126.272,286.115 126.538,285.790 126.751 C 285.464 126.964,284.811 127.217,284.338 127.313 C 283.446 127.494,281.606 128.190,280.000 128.952 C 279.490 129.194,278.988 129.392,278.884 129.392 C 278.377 129.390,270.377 134.155,270.377 134.459 C 270.377 134.543,270.082 134.742,269.723 134.901 C 267.585 135.847,259.276 144.946,257.846 147.906 C 257.598 148.420,257.285 148.908,257.151 148.990 C 257.018 149.073,256.745 149.549,256.545 150.049 C 256.345 150.548,256.097 150.957,255.993 150.957 C 255.889 150.957,255.686 151.313,255.542 151.750 C 255.398 152.186,255.129 152.668,254.945 152.821 C 254.760 152.975,254.608 153.270,254.607 153.478 C 254.605 153.685,254.348 154.377,254.034 155.014 C 253.720 155.652,253.461 156.307,253.457 156.471 C 253.453 156.634,253.202 157.364,252.900 158.094 C 252.598 158.823,252.283 159.871,252.199 160.422 C 252.116 160.973,251.905 161.651,251.731 161.929 C 251.557 162.207,251.343 163.113,251.257 163.942 C 251.170 164.771,250.890 166.260,250.634 167.251 C 250.066 169.454,250.049 183.760,250.614 184.747 C 250.776 185.031,251.054 186.299,251.231 187.566 C 251.409 188.833,251.671 190.088,251.814 190.354 C 251.957 190.621,252.176 191.395,252.302 192.074 C 252.427 192.754,252.737 193.715,252.990 194.211 C 253.242 194.707,253.449 195.252,253.449 195.423 C 253.449 195.594,253.652 196.120,253.899 196.592 C 254.147 197.063,254.953 198.701,255.691 200.232 C 256.429 201.762,257.159 203.146,257.313 203.306 C 257.467 203.466,257.666 203.831,257.755 204.117 C 257.845 204.404,257.982 204.690,258.060 204.754 C 258.351 204.990,259.645 206.744,259.942 207.304 C 260.111 207.623,260.372 207.988,260.521 208.116 C 260.670 208.243,261.580 209.287,262.543 210.435 C 263.506 211.583,264.541 212.731,264.842 212.987 C 267.908 215.587,269.417 216.812,269.557 216.812 C 269.648 216.812,270.262 217.259,270.920 217.807 C 272.358 219.003,273.981 220.042,275.826 220.949 C 276.209 221.137,276.799 221.483,277.137 221.718 C 277.476 221.953,277.971 222.145,278.239 222.145 C 278.506 222.145,278.931 222.351,279.183 222.603 C 279.434 222.855,279.930 223.130,280.284 223.215 C 280.638 223.300,281.238 223.526,281.617 223.717 C 281.996 223.909,282.912 224.206,283.652 224.379 C 284.392 224.552,285.230 224.839,285.514 225.016 C 285.797 225.194,286.699 225.410,287.517 225.497 C 288.335 225.584,289.483 225.830,290.068 226.045 C 291.909 226.720,304.798 226.616,306.617 225.911 C 307.356 225.625,308.454 225.391,309.059 225.391 C 309.663 225.391,310.373 225.240,310.636 225.056 C 310.900 224.872,311.627 224.596,312.253 224.444 C 312.879 224.291,313.548 224.037,313.739 223.879 C 313.930 223.721,314.348 223.512,314.667 223.416 C 315.577 223.142,317.366 222.064,318.258 221.251 L 319.072 220.510 319.072 208.039 C 319.072 194.381,319.093 194.590,317.777 194.855 C 317.405 194.930,316.542 195.096,315.859 195.225 C 315.175 195.353,314.360 195.626,314.047 195.831 C 313.723 196.043,312.763 196.255,311.812 196.323 C 310.895 196.388,309.362 196.612,308.406 196.819 C 306.008 197.339,301.235 197.325,299.855 196.796 C 299.297 196.581,298.410 196.403,297.884 196.399 C 297.283 196.394,296.582 196.179,296.000 195.820 C 295.490 195.506,294.864 195.248,294.609 195.246 C 294.354 195.245,293.467 194.775,292.638 194.203 C 291.809 193.631,291.008 193.162,290.857 193.161 C 290.707 193.160,290.394 192.922,290.162 192.631 C 289.929 192.341,289.296 191.750,288.754 191.317 C 288.212 190.885,287.768 190.417,287.768 190.278 C 287.768 190.139,287.559 189.894,287.304 189.735 C 287.049 189.576,286.841 189.298,286.841 189.117 C 286.841 188.937,286.606 188.494,286.319 188.133 C 285.257 186.797,283.594 183.552,283.594 182.814 C 283.594 182.500,283.359 181.803,283.072 181.266 C 282.203 179.639,282.151 171.558,282.998 169.547 C 283.326 168.768,283.594 167.941,283.594 167.711 C 283.594 167.480,283.777 167.034,284.000 166.718 C 284.223 166.403,284.516 165.830,284.650 165.445 C 285.115 164.110,288.248 160.436,290.813 158.216 C 291.704 157.444,295.292 155.639,297.507 154.847 L 299.478 154.142 304.839 154.137 C 309.823 154.133,310.272 154.167,311.216 154.621 C 311.775 154.890,312.701 155.181,313.275 155.267 C 313.849 155.352,314.528 155.606,314.783 155.830 C 315.038 156.053,315.494 156.312,315.796 156.404 C 316.098 156.495,316.776 156.877,317.303 157.251 C 317.830 157.625,318.574 158.152,318.957 158.421 C 319.768 158.992,322.046 161.621,322.551 162.569 C 324.239 165.740,324.638 166.603,324.638 167.078 C 324.638 167.379,324.836 167.971,325.078 168.393 C 325.322 168.819,325.587 169.880,325.674 170.783 C 325.760 171.675,326.004 172.928,326.217 173.565 C 326.566 174.612,326.610 177.104,326.671 199.300 C 326.708 212.816,326.823 223.960,326.927 224.063 C 327.256 224.392,358.557 224.269,358.772 223.937 C 359.097 223.437,358.876 166.736,358.545 165.797 C 358.388 165.351,358.157 163.899,358.031 162.572 C 357.905 161.244,357.653 159.931,357.472 159.654 C 357.290 159.377,357.068 158.637,356.978 158.010 C 356.887 157.383,356.565 156.319,356.262 155.645 C 355.958 154.972,355.710 154.232,355.710 154.000 C 355.710 153.769,355.501 153.390,355.246 153.159 C 354.991 152.929,354.783 152.504,354.783 152.216 C 354.783 151.927,354.417 151.030,353.971 150.223 C 353.525 149.415,352.979 148.388,352.759 147.942 C 352.539 147.496,351.984 146.661,351.526 146.087 C 351.068 145.513,350.450 144.641,350.153 144.149 C 349.558 143.164,349.199 142.746,347.037 140.522 C 343.942 137.336,341.393 135.144,340.302 134.729 C 339.977 134.606,339.710 134.414,339.710 134.304 C 339.710 134.194,339.445 133.983,339.122 133.835 C 338.798 133.688,338.407 133.458,338.252 133.324 C 337.560 132.727,335.400 131.478,335.058 131.478 C 334.851 131.478,334.492 131.270,334.261 131.014 C 334.030 130.759,333.727 130.547,333.587 130.543 C 333.448 130.539,332.812 130.280,332.174 129.966 C 331.536 129.652,330.890 129.395,330.737 129.393 C 330.584 129.392,329.969 129.130,329.369 128.812 C 328.769 128.493,328.057 128.232,327.785 128.232 C 327.514 128.232,327.064 128.073,326.786 127.878 C 326.509 127.683,325.702 127.417,324.994 127.286 C 324.286 127.155,323.264 126.847,322.723 126.602 C 322.182 126.356,321.413 126.153,321.015 126.150 C 320.616 126.147,319.834 125.978,319.276 125.773 C 318.717 125.568,317.217 125.313,315.942 125.205 C 314.667 125.097,312.788 124.847,311.768 124.651 C 309.616 124.236,301.106 123.998,298.435 124.278 " stroke="none" fill="#163c0d" fill-rule="evenodd"></path></g></svg>